<?xml version="1.0" encoding="UTF-8"?>
<svg width="68px" height="11px" viewBox="0 0 68 11" version="1.1" xmlns="http://www.w3.org/2000/svg" xmlns:xlink="http://www.w3.org/1999/xlink">
    <!-- Generator: Sketch 51.3 (57544) - http://www.bohemiancoding.com/sketch -->
    <title>Group 8</title>
    <desc>Created with Sketch.</desc>
    <defs></defs>
    <g id="Page-1" stroke="none" stroke-width="1" fill="none" fill-rule="evenodd">
        <g id="Group-8" transform="translate(-1.000000, -1.000000)">
            <path d="M6.53465887,10.7446443 L4.67897539,11.7202349 C4.1901308,11.9772357 3.58550365,11.7892891 3.32850284,11.3004446 C3.22616377,11.1057841 3.19084909,10.882816 3.22802594,10.6660584 L3.58242995,8.59972444 C3.63806788,8.27533037 3.5305194,7.94433017 3.29483331,7.71459302 L1.79355384,6.2512072 C1.39807026,5.86570599 1.38997795,5.23259273 1.77547916,4.83710915 C1.92898777,4.67962551 2.13013018,4.57713834 2.34776721,4.54551383 L4.42248442,4.24403977 C4.74819458,4.19671131 5.02976017,3.99214194 5.17542218,3.69699846 L6.10326392,1.81698575 C6.34768622,1.32173209 6.94731205,1.11839309 7.44256571,1.36281539 C7.63977832,1.46014562 7.79940584,1.61977315 7.89673608,1.81698575 L8.82457782,3.69699846 C8.97023983,3.99214194 9.25180542,4.19671131 9.57751558,4.24403977 L11.6522328,4.54551383 C12.1987777,4.62493144 12.5774591,5.13237429 12.4980415,5.67891916 C12.466417,5.89655619 12.3639298,6.0976986 12.2064462,6.2512072 L10.7051667,7.71459302 C10.4694806,7.94433017 10.3619321,8.27533037 10.4175701,8.59972444 L10.7719741,10.6660584 C10.8653351,11.2103948 10.4997472,11.7273507 9.9554108,11.8207118 C9.73865317,11.8578886 9.51568509,11.8225739 9.32102461,11.7202349 L7.46534113,10.7446443 C7.1740171,10.5914862 6.8259829,10.5914862 6.53465887,10.7446443 Z" id="Star" fill="#48FF19"></path>
            <path d="M20.5346589,10.7446443 L18.6789754,11.7202349 C18.1901308,11.9772357 17.5855036,11.7892891 17.3285028,11.3004446 C17.2261638,11.1057841 17.1908491,10.882816 17.2280259,10.6660584 L17.5824299,8.59972444 C17.6380679,8.27533037 17.5305194,7.94433017 17.2948333,7.71459302 L15.7935538,6.2512072 C15.3980703,5.86570599 15.389978,5.23259273 15.7754792,4.83710915 C15.9289878,4.67962551 16.1301302,4.57713834 16.3477672,4.54551383 L18.4224844,4.24403977 C18.7481946,4.19671131 19.0297602,3.99214194 19.1754222,3.69699846 L20.1032639,1.81698575 C20.3476862,1.32173209 20.9473121,1.11839309 21.4425657,1.36281539 C21.6397783,1.46014562 21.7994058,1.61977315 21.8967361,1.81698575 L22.8245778,3.69699846 C22.9702398,3.99214194 23.2518054,4.19671131 23.5775156,4.24403977 L25.6522328,4.54551383 C26.1987777,4.62493144 26.5774591,5.13237429 26.4980415,5.67891916 C26.466417,5.89655619 26.3639298,6.0976986 26.2064462,6.2512072 L24.7051667,7.71459302 C24.4694806,7.94433017 24.3619321,8.27533037 24.4175701,8.59972444 L24.7719741,10.6660584 C24.8653351,11.2103948 24.4997472,11.7273507 23.9554108,11.8207118 C23.7386532,11.8578886 23.5156851,11.8225739 23.3210246,11.7202349 L21.4653411,10.7446443 C21.1740171,10.5914862 20.8259829,10.5914862 20.5346589,10.7446443 Z" id="Star" fill="#343141"></path>
            <path d="M34.5346589,10.7446443 L32.6789754,11.7202349 C32.1901308,11.9772357 31.5855036,11.7892891 31.3285028,11.3004446 C31.2261638,11.1057841 31.1908491,10.882816 31.2280259,10.6660584 L31.5824299,8.59972444 C31.6380679,8.27533037 31.5305194,7.94433017 31.2948333,7.71459302 L29.7935538,6.2512072 C29.3980703,5.86570599 29.389978,5.23259273 29.7754792,4.83710915 C29.9289878,4.67962551 30.1301302,4.57713834 30.3477672,4.54551383 L32.4224844,4.24403977 C32.7481946,4.19671131 33.0297602,3.99214194 33.1754222,3.69699846 L34.1032639,1.81698575 C34.3476862,1.32173209 34.9473121,1.11839309 35.4425657,1.36281539 C35.6397783,1.46014562 35.7994058,1.61977315 35.8967361,1.81698575 L36.8245778,3.69699846 C36.9702398,3.99214194 37.2518054,4.19671131 37.5775156,4.24403977 L39.6522328,4.54551383 C40.1987777,4.62493144 40.5774591,5.13237429 40.4980415,5.67891916 C40.466417,5.89655619 40.3639298,6.0976986 40.2064462,6.2512072 L38.7051667,7.71459302 C38.4694806,7.94433017 38.3619321,8.27533037 38.4175701,8.59972444 L38.7719741,10.6660584 C38.8653351,11.2103948 38.4997472,11.7273507 37.9554108,11.8207118 C37.7386532,11.8578886 37.5156851,11.8225739 37.3210246,11.7202349 L35.4653411,10.7446443 C35.1740171,10.5914862 34.8259829,10.5914862 34.5346589,10.7446443 Z" id="Star" fill="#343141"></path>
            <path d="M48.5346589,10.7446443 L46.6789754,11.7202349 C46.1901308,11.9772357 45.5855036,11.7892891 45.3285028,11.3004446 C45.2261638,11.1057841 45.1908491,10.882816 45.2280259,10.6660584 L45.5824299,8.59972444 C45.6380679,8.27533037 45.5305194,7.94433017 45.2948333,7.71459302 L43.7935538,6.2512072 C43.3980703,5.86570599 43.389978,5.23259273 43.7754792,4.83710915 C43.9289878,4.67962551 44.1301302,4.57713834 44.3477672,4.54551383 L46.4224844,4.24403977 C46.7481946,4.19671131 47.0297602,3.99214194 47.1754222,3.69699846 L48.1032639,1.81698575 C48.3476862,1.32173209 48.9473121,1.11839309 49.4425657,1.36281539 C49.6397783,1.46014562 49.7994058,1.61977315 49.8967361,1.81698575 L50.8245778,3.69699846 C50.9702398,3.99214194 51.2518054,4.19671131 51.5775156,4.24403977 L53.6522328,4.54551383 C54.1987777,4.62493144 54.5774591,5.13237429 54.4980415,5.67891916 C54.466417,5.89655619 54.3639298,6.0976986 54.2064462,6.2512072 L52.7051667,7.71459302 C52.4694806,7.94433017 52.3619321,8.27533037 52.4175701,8.59972444 L52.7719741,10.6660584 C52.8653351,11.2103948 52.4997472,11.7273507 51.9554108,11.8207118 C51.7386532,11.8578886 51.5156851,11.8225739 51.3210246,11.7202349 L49.4653411,10.7446443 C49.1740171,10.5914862 48.8259829,10.5914862 48.5346589,10.7446443 Z" id="Star" fill="#343141"></path>
            <path d="M62.5346589,10.7446443 L60.6789754,11.7202349 C60.1901308,11.9772357 59.5855036,11.7892891 59.3285028,11.3004446 C59.2261638,11.1057841 59.1908491,10.882816 59.2280259,10.6660584 L59.5824299,8.59972444 C59.6380679,8.27533037 59.5305194,7.94433017 59.2948333,7.71459302 L57.7935538,6.2512072 C57.3980703,5.86570599 57.389978,5.23259273 57.7754792,4.83710915 C57.9289878,4.67962551 58.1301302,4.57713834 58.3477672,4.54551383 L60.4224844,4.24403977 C60.7481946,4.19671131 61.0297602,3.99214194 61.1754222,3.69699846 L62.1032639,1.81698575 C62.3476862,1.32173209 62.9473121,1.11839309 63.4425657,1.36281539 C63.6397783,1.46014562 63.7994058,1.61977315 63.8967361,1.81698575 L64.8245778,3.69699846 C64.9702398,3.99214194 65.2518054,4.19671131 65.5775156,4.24403977 L67.6522328,4.54551383 C68.1987777,4.62493144 68.5774591,5.13237429 68.4980415,5.67891916 C68.466417,5.89655619 68.3639298,6.0976986 68.2064462,6.2512072 L66.7051667,7.71459302 C66.4694806,7.94433017 66.3619321,8.27533037 66.4175701,8.59972444 L66.7719741,10.6660584 C66.8653351,11.2103948 66.4997472,11.7273507 65.9554108,11.8207118 C65.7386532,11.8578886 65.5156851,11.8225739 65.3210246,11.7202349 L63.4653411,10.7446443 C63.1740171,10.5914862 62.8259829,10.5914862 62.5346589,10.7446443 Z" id="Star" fill="#343141"></path>
        </g>
    </g>
</svg>